<svg xmlns="http://www.w3.org/2000/svg" xmlns:xlink="http://www.w3.org/1999/xlink" version="1.1" x="0px" y="0px" viewBox="0 0 100 125" style="enable-background:new 0 0 100 100;" xml:space="preserve"><path d="M82,37H18c-7.2,0-13,5.8-13,13c0,7.2,5.8,13,13,13h64c7.2,0,13-5.8,13-13C95,42.8,89.2,37,82,37z M82,61H18  c-6.1,0-11-4.9-11-11c0-6.1,4.9-11,11-11h64c6.1,0,11,4.9,11,11C93,56.1,88.1,61,82,61z"/><path d="M21.7,52.8c0.8-1.1,1.3-2.4,1.3-3.8c0-3.6-2.9-6.5-6.5-6.5S10,45.4,10,49s2.9,6.5,6.5,6.5c1.4,0,2.8-0.5,3.8-1.3l4,4  c0.4,0.4,1,0.4,1.4,0c0.4-0.4,0.4-1,0-1.4L21.7,52.8z M16.5,53.5c-2.5,0-4.5-2-4.5-4.5s2-4.5,4.5-4.5s4.5,2,4.5,4.5  S19,53.5,16.5,53.5z"/><text x="0" y="115" fill="#000000" font-size="5px" font-weight="bold" font-family="'Helvetica Neue', Helvetica, Arial-Unicode, Arial, Sans-serif">Created by un·delivered</text><text x="0" y="120" fill="#000000" font-size="5px" font-weight="bold" font-family="'Helvetica Neue', Helvetica, Arial-Unicode, Arial, Sans-serif">from the Noun Project</text></svg>